<?xml version="1.0" encoding="UTF-8" standalone="no"?>
<!-- Created with Inkscape (http://www.inkscape.org/) -->

<svg
   width="210mm"
   height="297mm"
   viewBox="0 0 210 297"
   version="1.1"
   id="svg1"
   inkscape:version="1.3.2 (091e20e, 2023-11-25, custom)"
   sodipodi:docname="EasyLib.svg"
   xmlns:inkscape="http://www.inkscape.org/namespaces/inkscape"
   xmlns:sodipodi="http://sodipodi.sourceforge.net/DTD/sodipodi-0.dtd"
   xmlns="http://www.w3.org/2000/svg"
   xmlns:svg="http://www.w3.org/2000/svg">
  <sodipodi:namedview
     id="namedview1"
     pagecolor="#ffffff"
     bordercolor="#000000"
     borderopacity="0.25"
     inkscape:showpageshadow="2"
     inkscape:pageopacity="0.0"
     inkscape:pagecheckerboard="0"
     inkscape:deskcolor="#d1d1d1"
     inkscape:document-units="mm"
     inkscape:zoom="0.65386545"
     inkscape:cx="383.10634"
     inkscape:cy="430.51671"
     inkscape:window-width="1366"
     inkscape:window-height="715"
     inkscape:window-x="-8"
     inkscape:window-y="-8"
     inkscape:window-maximized="1"
     inkscape:current-layer="layer1" />
  <defs
     id="defs1">
    <inkscape:path-effect
       effect="spiro"
       id="path-effect13"
       is_visible="true"
       lpeversion="1" />
  </defs>
  <g
     inkscape:label="Layer 1"
     inkscape:groupmode="layer"
     id="layer1">
    <path
       style="opacity:0.91;fill:none;fill-opacity:1;stroke:#11bae5;stroke-width:4.106;stroke-linecap:round;stroke-linejoin:bevel;stroke-dasharray:none;stroke-dashoffset:0;stroke-opacity:1;paint-order:stroke markers fill"
       d="m 114.51451,62.719963 c -11.50494,11.677769 -17.453397,28.607996 -15.78115,44.915587 1.63205,15.91562 10.011,30.58955 11.33006,46.53416 1.30215,15.7402 -4.80964,31.93643 -16.185799,42.89236"
       id="path13"
       inkscape:path-effect="#path-effect13"
       inkscape:original-d="m 114.51451,62.719963 c -4.99062,15.241624 -9.98124,30.078605 -15.78115,44.915587 -5.79991,14.83698 7.14873,31.29254 11.33006,46.53416 4.18133,15.24163 -10.655653,28.32515 -16.185799,42.89236"
       transform="matrix(2.0039331,0,0,1.4309227,-94.026263,-68.719315)" />
    <path
       sodipodi:type="spiral"
       style="fill:none;fill-rule:evenodd;stroke:#1146db;stroke-width:2.84002;stroke-linecap:round;stroke-linejoin:round;stroke-dasharray:none;stroke-opacity:1;paint-order:stroke markers fill"
       id="path9"
       sodipodi:cx="74.65699"
       sodipodi:cy="106.62393"
       sodipodi:expansion="1.67"
       sodipodi:revolution="3.4100001"
       sodipodi:radius="43.400051"
       sodipodi:argument="-18.370863"
       sodipodi:t0="0.435"
       d="m 64.59591,102.67433 c 1.362325,-6.833558 8.657728,-10.572913 15.183987,-9.100317 8.599027,1.940299 13.250611,11.197807 11.219825,19.465457 -2.584957,10.52377 -13.995439,16.16847 -24.165027,13.51071 C 54.233062,123.25682 47.517642,109.51079 50.867722,97.285161 54.930713,82.457861 71.187895,74.596885 85.618173,78.701786 102.81428,83.593469 111.89325,102.53143 106.97345,119.31016 101.19592,139.0141 79.412795,149.38139 60.146021,143.58868 45.093968,139.06316 33.979379,125.79453 31.420304,110.38603"
       transform="matrix(2.5192077,0,0,0.85522554,-70.77211,68.164228)" />
    <path
       style="opacity:0.91;fill:none;fill-opacity:1;stroke:#1146db;stroke-width:3.35089;stroke-linecap:round;stroke-linejoin:round;stroke-dasharray:none;stroke-opacity:1;paint-order:stroke markers fill"
       id="path11"
       d="m 91.193193,59.623075 c -2.334378,3.332539 -5.675764,6.288705 -8.925002,9.205681 -3.214431,2.654635 -6.357854,5.355202 -9.603281,7.991015 -1.790579,1.32321 -3.512581,2.705418 -5.411607,3.952161 -1.948732,1.308469 -3.59667,2.800412 -5.403888,4.198963 -1.282148,0.994009 -2.497809,2.007642 -3.564881,3.11966 -1.347781,1.093597 -2.007603,1.953752 -1.472247,3.398191 0.156723,0.191128 0.280651,0.397405 0.470224,0.57338 0.455391,0.42276 1.027835,0.740284 1.680826,1.002998 3.721783,1.497387 7.123453,2.775846 10.823239,4.110289 5.371338,1.682189 11.107718,2.704636 16.750307,3.838957 6.508729,1.29102 12.999073,2.62565 19.664457,3.4608 4.27862,0.61075 8.51129,1.26985 12.86788,1.53514 3.50681,-0.009 6.89897,0.55703 10.3328,0.9697 2.39434,0.29834 4.7218,0.77311 7.07752,1.18176 0.43774,-0.1633 0.91017,-0.28754 1.31322,-0.48981 2.08875,-1.04831 3.79896,-2.62171 5.48064,-3.95124 2.64299,-2.08946 2.06576,-1.6357 4.68301,-3.775857 4.35568,-3.701858 8.73831,-7.379469 13.30077,-10.958743 2.43207,-1.877588 4.70447,-3.869383 7.22054,-5.692594 1.55413,-1.264128 3.23948,-2.440595 5.02583,-3.543136 0.88559,-0.626679 0.47746,-0.300799 1.22946,-0.974599 0,0 -6.7255,-2.801722 -6.7255,-2.801722 v 0 c -0.68092,0.615621 -0.30678,0.313285 -1.13095,0.901769 -1.77441,1.129039 -3.42445,2.350837 -5.02082,3.602309 -2.42217,1.876692 -4.64524,3.879805 -6.94429,5.82943 -4.46157,3.634601 -8.88651,7.288289 -13.21519,11.00019 -2.25203,1.824202 -4.5001,3.665683 -6.95236,5.362443 -0.63927,0.44232 -2.40907,1.62985 -3.3895,1.98884 -0.32662,0.11967 -0.7155,0.12473 -1.07327,0.18702 -2.33132,-0.41876 -4.66763,-0.81389 -7.03949,-1.1086 -3.41015,-0.40623 -6.79759,-0.87136 -10.27364,-0.89003 -4.29108,-0.31919 -8.48633,-0.96656 -12.72582,-1.51478 -6.599484,-0.83756 -13.039666,-2.134569 -19.480816,-3.430227 -5.723448,-1.170286 -11.545673,-2.254818 -16.935868,-4.068347 -0.559331,-0.199694 -1.116255,-0.40272 -1.67799,-0.599105 -0.472571,-0.165225 -1.872086,-0.682265 -1.424799,-0.485618 1.801855,0.792144 3.676224,1.500952 5.494345,2.274708 0.198976,0.08456 -2.632982,-0.972998 -2.311788,-1.223772 -0.91168,-1.244753 0.01261,-1.959615 1.132267,-2.939738 1.04921,-1.08444 2.222787,-2.091319 3.444836,-3.083307 1.767682,-1.399521 3.40984,-2.87449 5.350637,-4.16428 1.929302,-1.253435 3.68183,-2.642796 5.403474,-4.035229 3.108518,-2.710409 6.160975,-5.451891 9.351815,-8.116184 3.284972,-2.963186 6.641218,-5.914208 9.442183,-9.116337 z" />
    <path
       style="opacity:0.91;fill:none;stroke:#1146db;stroke-width:3.48968;stroke-linecap:round;stroke-linejoin:round;stroke-dasharray:none;stroke-opacity:1;paint-order:stroke markers fill"
       id="path10"
       d="m 63.443057,64.801882 c -4.343734,4.091294 -9.239878,7.822834 -14.076665,11.573422 -3.504575,2.853365 -7.214603,5.554432 -10.76372,8.374118 -2.844789,2.430647 -6.059386,4.584635 -9.014346,6.931308 -2.144928,1.67145 -4.190322,3.411797 -6.265328,5.131662 -0.805682,0.715174 -1.918474,1.353421 -1.50237,2.381857 2.354268,1.901341 6.113878,3.252071 9.612051,3.734301 2.332715,0.32584 4.690799,0.52016 7.02019,0.86785 3.329621,0.65956 6.688162,1.24043 10.040994,1.83073 6.428029,1.13998 12.778026,2.5109 19.159302,3.79015 2.851027,0.52546 5.7146,1.03768 8.507311,1.72743 2.242722,0.55389 4.432046,1.23415 6.662625,1.81655 3.545523,0.95313 7.139903,1.78033 10.777105,2.50348 3.557291,0.91181 7.199434,1.58779 10.838214,2.27666 3.72702,0.77074 7.447,1.55924 11.1648,2.35545 3.41406,0.72933 6.8641,1.35495 10.28776,2.05617 3.00984,0.54987 6.00542,1.13574 8.98636,1.76878 2.24753,0.61879 4.51081,1.22379 6.70734,1.94169 0.25685,0.0815 0.51182,0.16642 0.77057,0.24432 0.5439,0.16376 0.78371,0.19923 1.30372,0.4047 0.54182,0.21412 1.04462,0.46897 1.59673,0.67159 0.30002,-0.0955 0.64045,-0.13702 0.90009,-0.28624 0.90844,-0.5211 4.24189,-3.14991 4.56542,-3.40024 4.13365,-3.19811 8.26071,-6.39964 12.3551,-9.62682 1.4691,-1.16418 2.94039,-2.32679 4.4073,-3.49256 2.83682,-2.25453 4.88821,-3.87169 7.61932,-6.15889 2.89532,-2.42475 5.68599,-4.921641 8.49336,-7.404908 3.83964,-3.431099 7.65945,-6.87363 11.58388,-10.248943 1.71768,-1.406552 3.35208,-2.873988 5.10449,-4.255714 0,0 -6.47093,-2.976285 -6.47093,-2.976285 v 0 c -1.59338,1.474345 -3.18724,2.948388 -4.76379,4.432773 -3.64224,3.520349 -7.3292,7.014753 -11.01361,10.509559 -6.32623,5.948808 -12.56622,11.968558 -19.67574,17.399688 -3.66671,2.73804 -5.28874,4.01573 -9.071,6.58797 -1.32428,0.90063 -2.65849,1.79437 -4.0438,2.64022 -1.32666,0.81004 -3.56079,2.16517 -5.38165,2.64971 -0.21497,0.0573 -0.45188,-0.0436 -0.67782,-0.065 -1.15936,-0.4695 -2.34505,-0.88016 -3.58827,-1.20813 -2.19017,-0.63354 -4.37168,-1.29469 -6.61891,-1.80388 -2.95677,-0.60381 -5.92279,-1.17966 -8.90321,-1.71251 -3.42615,-0.66461 -6.84615,-1.34503 -10.25861,-2.04938 -3.68625,-0.76863 -7.36398,-1.56008 -11.066312,-2.2827 -3.660002,-0.72226 -7.302633,-1.48882 -10.917619,-2.33342 -3.571748,-0.75831 -7.130892,-1.54858 -10.637654,-2.46892 -2.179755,-0.57616 -4.342686,-1.20844 -6.552601,-1.71587 -2.747697,-0.63097 -5.554784,-1.10019 -8.341566,-1.61604 -6.46265,-1.29328 -12.919298,-2.60403 -19.378095,-3.90779 -3.475459,-0.69491 -6.948207,-1.39709 -10.445972,-2.02516 -2.387733,-0.32596 -4.806724,-0.530679 -7.162696,-0.981385 -0.626059,-0.135252 -1.263201,-0.262482 -1.869159,-0.446 -0.162312,-0.04904 -0.628112,-0.231251 -0.47845,-0.16271 8.671586,3.971345 8.34029,3.813965 6.111677,2.736445 -0.140815,-0.0187 -0.363777,-0.0136 -0.442124,-0.1431 -0.255459,-0.42309 0.902755,-1.31959 1.134036,-1.598913 1.926883,-1.793898 3.935309,-3.529818 6.042793,-5.20333 2.92716,-2.354233 5.890378,-4.682225 8.891638,-6.982014 0.630756,-0.487816 2.384293,-1.837187 3.010823,-2.348141 2.496045,-2.035543 4.774417,-4.22088 7.272019,-6.255798 4.71426,-3.906022 9.477564,-7.83219 14.988072,-11.103542 z" />
  </g>
</svg>
